<svg xmlns="http://www.w3.org/2000/svg" viewBox="0 0 100 100">
  <defs>
    <linearGradient id="g" x1="0" y1="0" x2="1" y2="1">
      <stop offset="0%" stop-color="#2ECC71"/>
      <stop offset="60%" stop-color="#00A86B"/>
      <stop offset="100%" stop-color="#00BCD4"/>
    </linearGradient>
  </defs>
  <rect width="100" height="100" rx="22" fill="url(#g)"/>
  <!-- P shape -->
  <path d="M24 18 L24 82 Q24 86 28 86 L36 86 Q40 86 40 82 L40 64 L56 64 Q76 64 82 50 Q88 36 76 26 Q68 18 52 18 Z M40 30 L52 30 Q64 30 68 40 Q72 50 62 56 Q56 60 48 60 L40 60 Z" fill="white"/>
  <!-- River winding through P -->
  <path d="M50 18 C46 28 56 36 52 46 C48 56 38 58 36 68 C34 76 42 80 40 88" stroke="url(#g)" stroke-width="6" stroke-linecap="round" fill="none"/>
</svg>
