<svg xmlns="http://www.w3.org/2000/svg" viewBox="0 0 200 200" fill="none">
  <defs>
    <linearGradient id="grad" x1="0.1" y1="0" x2="0.9" y2="1">
      <stop offset="0%" stop-color="#2ECC71"/>
      <stop offset="55%" stop-color="#00A86B"/>
      <stop offset="100%" stop-color="#00BCD4"/>
    </linearGradient>
    <mask id="pmask">
      <!-- P outer shape -->
      <path d="
        M28 16
        Q16 16 16 28
        L16 160
        Q16 178 30 184
        L52 194
        Q68 200 72 184
        Q74 172 64 166
        L54 162
        L54 128
        Q54 128 64 128
        L100 128
        Q152 128 168 92
        Q180 64 164 36
        Q148 10 108 10
        L40 10
        Q28 10 28 16
        Z
        M54 32
        L102 32
        Q138 32 144 60
        Q150 86 124 100
        Q112 108 94 108
        L54 108
        Z
      " fill="white"/>
      <!-- Cutout river path -->
      <path d="
        M82 30
        C78 44 94 54 90 70
        C86 84 70 88 68 104
        C66 118 80 124 78 136
        C76 148 62 152 58 164
      " stroke="black" stroke-width="18" stroke-linecap="round" fill="none"/>
    </mask>
  </defs>
  <rect width="200" height="200" fill="url(#grad)" mask="url(#pmask)"/>
</svg>
